<svg xmlns="http://www.w3.org/2000/svg" viewBox="0 0 312 263.01"><defs></defs><title>menu</title><path style="fill: #fff" d="M439,270q-38.19,0-76.38-.1-116.56,0-233.14,0c-.82,0-1.65.1-2.48.15V223H439Z" transform="translate(-127 -222)"/><path style="fill: #fff" d="M127,330c1.33,0,2.66.13,4,.13H435c1.33,0,2.66-.09,4-.13v47q-48.42,0-96.85-.09-106.33,0-212.67-.06c-.82,0-1.65.1-2.48.15Z" transform="translate(-127 -222)"/><path style="fill: #fff" d="M127,438q96.34,0,192.69.06,59.65,0,119.31-.06v46H127Z" transform="translate(-127 -222)"/></svg>
